<?xml version="1.0" encoding="UTF-8"?>
<svg width="400px" height="401px" viewBox="0 0 400 401" version="1.1" xmlns="http://www.w3.org/2000/svg" xmlns:xlink="http://www.w3.org/1999/xlink">
    <!-- Generator: Sketch 61 (89581) - https://sketch.com -->
    <title>App Icon</title>
    <desc>Created with Sketch.</desc>
    <g id="Santa-EMP-System" stroke="none" stroke-width="1" fill="none" fill-rule="evenodd">
        <g id="App-Icon" transform="translate(-88.621172, -76.299423)">
            <rect id="Rectangle" fill="#FFFFFF" x="88.6211719" y="76.2994228" width="400" height="400"></rect>
            <path d="M236.667269,356.541791 C235.932743,356.447513 232.71941,356.115788 229.552096,355.830325 C226.384781,355.544862 220.324877,354.743998 216.009003,353.994029 C175.880901,347.148528 138.932646,328.315995 109.39209,299.63028 C93.4254794,284.130725 81.5881641,268.273335 70.0109015,246.787901 C59.0332475,226.411398 54.1351875,214.079372 50.9269872,198.753029 L49.8577961,193.721144 L46.5973172,192.927916 C41.5916801,191.668555 37.9605519,189.582471 34.2331243,185.835181 C30.4595537,181.99549 28.4301378,178.252832 27.3146783,173.082409 C26.2913794,168.050649 26.4786912,135.662756 27.6169665,132.343974 C30.3940674,124.139104 35.6109803,118.709129 43.9086911,115.502148 L46.9343161,114.31083 L192.871166,114.570468 C300.121008,114.770723 339.634451,114.970772 341.93019,115.39227 C346.521418,116.14299 351.852565,118.971908 355.35003,122.534022 C358.847369,126.049998 361.799646,131.640667 362.50032,136.164036 C363.248014,141.102769 363.189851,170.353676 362.374326,174.226987 C360.38103,183.771977 353.058719,191.272389 343.290451,193.737161 L339.988469,194.558627 L338.946619,199.584754 C333.78376,224.900064 321.320528,248.903617 302.789867,269.338047 C301.27994,270.994873 300.136397,272.375873 300.228432,272.468399 C300.274575,272.560799 303.760502,271.878248 307.888292,270.96676 C339.581247,264.22488 368.179609,250.184861 393.72952,228.939105 C399.636196,224.018521 412.817032,210.766923 417.71132,204.828557 C422.010891,199.580629 426.858032,193.180761 429.417335,189.266069 L431.153965,186.594841 L430.050546,185.853634 C427.291996,184.000617 422.872298,178.821181 421.211023,175.448625 C415.673482,164.222151 417.612483,151.585812 426.307923,142.751163 C437.520412,131.339688 454.867667,131.387004 466.234271,142.906201 C471.802403,148.504005 474.527602,154.970664 474.548922,162.76793 C474.569867,170.519058 471.925677,176.971072 466.342253,182.630734 C462.177726,186.910146 456.953664,189.710274 451.907653,190.480846 C450.118484,190.706652 448.421476,191.071122 448.05484,191.254672 C447.642437,191.484233 446.914558,193.835252 446.144549,197.570275 C437.538906,239.439495 415.01927,278.087289 382.37676,306.926359 C350.237936,335.351567 310.037374,352.497278 267.138567,356.209668 C260.072798,356.790181 240.798822,357.014434 236.667269,356.541791 Z" id="Path" fill="#AB0000" fill-rule="nonzero" transform="translate(250.596902, 235.554155) scale(-1, 1) rotate(-141.000000) translate(-250.596902, -235.554155) "></path>
            <g id="電気・カミナリマークの無料アイコン素材-3" transform="translate(353.621172, 367.299423) rotate(-17.000000) translate(-353.621172, -367.299423) translate(298.621172, 270.299423)"></g>
            <path d="M406.789032,350.960878 L366.406486,354.462402 C357.594732,355.213294 350.738922,355.796441 350.255129,355.837906 L379.25589,271.871448 C379.494954,271.177853 378.56098,270.70063 378.137614,271.298478 L299.282011,382.49834 C298.694737,383.325754 299.371896,384.456615 300.381026,384.331467 L336.205118,379.899244 C345.603768,378.753681 353.279496,377.816951 353.838822,377.749476 L315.704534,463.131019 C315.403533,463.805389 316.306537,464.360642 316.775601,463.78918 L407.796651,352.864495 C408.451528,352.064976 407.821577,350.870786 406.789032,350.960878 Z" id="Path" fill="#000000" fill-rule="nonzero" transform="translate(353.563938, 367.526663) rotate(-17.000000) translate(-353.563938, -367.526663) "></path>
            <path d="M329.185009,411.947856 L288.802462,415.44938 C279.990708,416.200272 273.134898,416.783419 272.651105,416.824884 L301.651866,332.858426 C301.89093,332.164831 300.956957,331.687607 300.533591,332.285456 L221.677988,443.485318 C221.090714,444.312732 221.767873,445.443593 222.777002,445.318445 L258.601094,440.886222 C267.999744,439.740659 275.675472,438.803929 276.234799,438.736454 L253.807642,472.742284 C253.506641,473.416655 276.438995,480.376253 276.908059,479.804791 L330.192628,413.851473 C330.847504,413.051954 330.217554,411.857764 329.185009,411.947856 Z" id="Path" fill="#000000" fill-rule="nonzero" transform="translate(275.959914, 405.925875) rotate(-17.000000) translate(-275.959914, -405.925875) "></path>
            <rect id="Rectangle" stroke="#979797" fill="#FAEDED" transform="translate(258.289734, 333.187384) rotate(-39.000000) translate(-258.289734, -333.187384) " x="86.789734" y="289.687384" width="343" height="87"></rect>
            <g id="電源ボタン" transform="translate(423.621172, 143.299423)" fill="#FFFFFF" fill-rule="nonzero">
                <path d="M25,0 C11.1932617,0 0,11.1931641 0,25 C0,38.8068359 11.1932617,50 25,50 C38.8068359,50 50,38.8068359 50,25 C50,11.1931641 38.8068359,0 25,0 Z M23.1707317,12.4324049 C23.1707317,11.290156 24.0579153,10.3658537 25.1523918,10.3658537 C26.2461124,10.3658537 27.1341463,11.2902545 27.1341463,12.4324049 L27.1341463,22.9324635 C27.1341463,24.0739242 26.2462069,25 25.1523918,25 C24.0579153,25 23.1707317,24.0740227 23.1707317,22.9324635 L23.1707317,12.4324049 Z M35.088206,35.0983664 C32.4731169,37.7096594 28.8409294,39.3301433 24.8476097,39.3292683 C20.8543875,39.330046 17.2221026,37.7096594 14.6070134,35.0983664 C11.9893893,32.4896022 10.3649765,28.8661997 10.3658537,24.8825384 C10.3649765,20.492516 12.3389194,16.5467869 15.4381832,13.9043701 C16.2958724,13.1723755 17.5856723,13.2721664 18.3193441,14.1285592 C19.0546734,14.9832986 18.9547381,16.2708544 18.0970489,17.0044052 C15.8645416,18.9133685 14.4549167,21.7232707 14.4541367,24.8826357 C14.4550142,27.7526459 15.6141669,30.330967 17.4980217,32.2143504 C19.3859714,34.0936488 21.9705437,35.2492199 24.8475122,35.2509706 C27.7245783,35.2492199 30.3090531,34.0937461 32.1970028,32.2143504 C34.0808575,30.330967 35.2392303,27.7526459 35.2409853,24.8826357 C35.2392303,21.7232707 33.8305804,18.9133685 31.5979756,17.0044052 C30.7403839,16.2708544 30.639571,14.9832986 31.3756803,14.1285592 C32.1094496,13.2721664 33.3991521,13.1724727 34.2568413,13.9043701 C37.3561051,16.5468842 39.3300479,20.492516 39.3292683,24.8825384 C39.3301454,28.8661024 37.7058301,32.4896022 35.088206,35.0983664 Z" id="Shape"></path>
            </g>
        </g>
    </g>
</svg>