<?xml version="1.0" encoding="UTF-8"?>
<svg width="100px" height="150px" viewBox="0 0 100 150" version="1.1" xmlns="http://www.w3.org/2000/svg" xmlns:xlink="http://www.w3.org/1999/xlink">
    <!-- Generator: Sketch 61 (89581) - https://sketch.com -->
    <title>Group</title>
    <desc>Created with Sketch.</desc>
    <g id="Santa-EMP-System" stroke="none" stroke-width="1" fill="none" fill-rule="evenodd" stroke-opacity="0">
        <g id="pin" transform="translate(-138.000000, -42.000000)" stroke="#979797">
            <g id="Group" transform="translate(138.000000, 42.000000)">
                <path d="M50.9754719,148.656503 C72.9216093,115.092097 87.4648819,89.7538663 94.609898,72.6353158 C97.813559,65.8856756 99.5,58.4684888 99.5,50.8064516 C99.5,23.0211907 77.3362885,0.5 50,0.5 C22.6637115,0.5 0.5,23.0211907 0.5,50.8064516 C0.5,55.2278761 1.06116691,59.5757693 2.16785411,63.8238095 C2.22645503,64.2094605 2.32490383,64.6011727 2.4639178,64.9990396 C2.52034323,65.1605328 2.57841045,65.3246873 2.66924471,65.5816704 C3.77807185,69.2548146 5.29822146,72.7775547 7.2117686,76.1188715 C14.9544703,92.1406502 29.5437033,116.323148 50.9754719,148.656503 Z" id="Combined-Shape" fill="#51CAB7"></path>
                <ellipse id="Oval" fill="#FFFFFF" cx="49.5" cy="52.7419355" rx="17" ry="16.4354839"></ellipse>
            </g>
        </g>
    </g>
</svg>