<?xml version="1.0" encoding="UTF-8"?>
<svg width="18px" height="21px" viewBox="0 0 18 21" version="1.1" xmlns="http://www.w3.org/2000/svg" xmlns:xlink="http://www.w3.org/1999/xlink">
    <!-- Generator: Sketch 61 (89581) - https://sketch.com -->
    <title>spam</title>
    <desc>Created with Sketch.</desc>
    <g id="Santa-EMP-System" stroke="none" stroke-width="1" fill="none" fill-rule="evenodd">
        <g id="Press-Option" transform="translate(-19.000000, -310.000000)">
            <g id="Side-nav">
                <g id="side-nav-drawer">
                    <g id="#4" transform="translate(0.000000, 293.000000)">
                        <g id="spam" transform="translate(16.000000, 13.621622)">
                            <rect id="bounds" x="0" y="0" width="24" height="27.2432432"></rect>
                            <path d="M12,19.6367027 C11.284,19.6367027 10.7,18.9783243 10.7,18.1621622 C10.7,17.3482703 11.284,16.6876216 12,16.6876216 C12.717,16.6876216 13.3,17.3482703 13.3,18.1621622 C13.3,18.9783243 12.717,19.6367027 12,19.6367027 L12,19.6367027 Z M10.999,7.94594595 L12.999,7.94594595 L12.999,14.7556216 L10.999,14.7556216 L10.999,7.94594595 Z M15.728,3.40540541 L8.271,3.40540541 L3,9.38983784 L3,17.8534054 L8.271,23.8367027 L15.728,23.8367027 L21.001,17.8534054 L21.001,9.38983784 L15.728,3.40540541 L15.728,3.40540541 Z" id="Fill-4" fill="#000000" opacity="0.539999962"></path>
                        </g>
                    </g>
                </g>
            </g>
        </g>
    </g>
</svg>